<?xml version="1.0" ?><!DOCTYPE svg  PUBLIC '-//W3C//DTD SVG 1.1//EN'  'http://www.w3.org/Graphics/SVG/1.1/DTD/svg11.dtd'><svg enable-background="new 0 0 512 512" height="512px" id="Layer_1" version="1.1" viewBox="0 0 512 512" width="512px" xml:space="preserve" xmlns="http://www.w3.org/2000/svg" xmlns:xlink="http://www.w3.org/1999/xlink"><g><g><path d="M400,64c-5.312,0-10.562,0.375-15.792,1.125C354.334,24.417,307.188,0,256,0    c-51.188,0-98.312,24.417-128.208,65.125C122.562,64.375,117.312,64,112,64C50.25,64,0,114.25,0,176s50.25,112,112,112    c13.688,0,27.084-2.5,39.709-7.333C180.666,305.917,217.5,320,256,320c38.542,0,75.333-14.083,104.291-39.333    C372.916,285.5,386.312,288,400,288c61.75,0,112-50.25,112-112S461.75,64,400,64z M225,480c0,17.688,14.312,32,32,32    c17.688,0,32-14.312,32-32s-32-64-32-64S225,462.312,225,480z M352,448c0,17.688,14.312,32,32,32s32-14.312,32-32s-32-64-32-64    S352,430.312,352,448z M96,384c0,17.688,14.312,32,32,32s32-14.312,32-32s-32-64-32-64S96,366.312,96,384z" fill="#1D1D1B"/></g></g></svg>